<?xml version="1.0" encoding="UTF-8" standalone="no"?>
<!DOCTYPE svg PUBLIC "-//W3C//DTD SVG 1.1//EN" "http://www.w3.org/Graphics/SVG/1.1/DTD/svg11.dtd">
<svg xmlns="http://www.w3.org/2000/svg" version="1.1" viewBox="0.00 0.00 1506.00 1392.00">
<path fill="#f7fefe" d="
  M 620.59 1365.20
  Q 620.09 1366.18 619.25 1365.76
  C 615.11 1363.67 610.84 1361.66 607.05 1359.16
  Q 596.36 1352.10 581.33 1340.17
  Q 575.57 1335.59 573.77 1333.49
  Q 573.40 1333.06 572.01 1332.73
  Q 571.51 1332.60 571.15 1332.24
  Q 567.95 1328.94 564.64 1325.78
  C 563.58 1324.77 562.17 1324.71 561.30 1323.67
  Q 559.68 1321.72 557.63 1320.30
  Q 555.81 1319.05 554.10 1317.41
  C 552.54 1315.91 550.77 1315.06 549.22 1313.58
  C 547.31 1311.76 544.77 1310.35 543.04 1308.99
  C 535.15 1302.74 529.65 1299.19 524.36 1295.40
  Q 500.48 1278.29 468.61 1257.66
  C 465.10 1255.39 461.46 1252.97 457.79 1251.01
  C 456.43 1250.28 455.66 1248.96 454.02 1248.47
  C 451.09 1247.60 449.47 1245.45 447.03 1244.37
  Q 445.23 1243.57 443.43 1242.80
  C 441.88 1242.14 441.44 1240.86 439.92 1240.28
  C 437.48 1239.34 435.72 1237.55 433.55 1236.56
  C 431.05 1235.41 428.03 1234.16 425.89 1232.46
  Q 425.48 1232.13 424.93 1232.08
  Q 424.46 1232.05 424.05 1231.84
  L 419.27 1229.46
  A 1.17 1.17 0.0 0 1 418.76 1228.98
  Q 417.77 1227.28 415.80 1227.43
  Q 415.28 1227.47 414.82 1227.23
  L 406.38 1222.97
  Q 405.90 1222.72 405.36 1222.79
  Q 404.40 1222.91 403.78 1222.17
  Q 403.45 1221.77 402.94 1221.77
  C 401.79 1221.77 401.16 1221.76 400.12 1221.16
  Q 398.65 1220.31 395.26 1219.04
  Q 385.48 1215.37 382.43 1213.36
  Q 378.95 1211.06 377.02 1210.06
  Q 375.98 1209.52 374.77 1208.53
  C 373.76 1207.69 372.57 1207.33 371.69 1206.49
  Q 367.63 1202.60 363.95 1198.77
  Q 362.55 1197.32 361.97 1195.39
  Q 343.71 1134.38 325.71 1072.99
  Q 259.67 847.80 194.07 622.48
  Q 161.28 509.85 128.68 397.18
  Q 125.39 385.79 122.04 374.42
  Q 107.81 325.99 93.74 277.51
  C 75.35 214.18 56.85 150.86 38.96 87.39
  C 35.47 75.01 30.52 58.63 26.71 44.10
  Q 26.56 43.51 27.04 43.88
  Q 28.85 45.25 29.46 46.06
  Q 44.64 66.32 55.81 82.99
  Q 100.75 150.10 139.64 213.07
  Q 188.63 292.37 204.38 317.45
  C 260.07 406.15 317.53 493.74 374.93 581.34
  Q 470.15 726.70 563.59 873.20
  Q 597.56 926.47 630.25 980.53
  Q 651.47 1015.63 674.28 1049.71
  C 690.41 1073.80 706.36 1095.32 723.56 1116.77
  C 724.39 1117.80 725.88 1120.18 727.39 1121.67
  Q 728.49 1122.76 729.19 1123.76
  Q 731.89 1127.63 735.46 1130.75
  C 736.68 1131.82 736.76 1133.19 737.84 1134.27
  Q 741.11 1137.57 744.38 1140.87
  Q 744.76 1141.25 744.94 1142.42
  Q 745.01 1142.90 745.35 1143.24
  L 752.55 1150.40
  A 0.55 0.55 0.0 0 0 753.30 1150.42
  C 755.20 1148.75 760.48 1144.21 761.24 1142.10
  C 762.58 1138.43 768.86 1136.02 769.83 1131.87
  Q 769.95 1131.38 770.31 1131.03
  Q 772.41 1128.94 774.48 1126.82
  C 776.23 1125.05 777.35 1122.47 779.61 1120.65
  C 780.98 1119.54 780.89 1118.14 782.04 1117.18
  C 784.69 1114.97 785.98 1112.07 788.28 1109.68
  C 790.07 1107.82 791.38 1105.53 792.90 1103.76
  Q 795.01 1101.30 796.96 1098.70
  C 826.90 1058.85 854.13 1016.78 879.86 974.12
  Q 910.71 922.97 942.85 872.63
  C 1022.19 748.35 1102.72 624.87 1183.40 501.46
  C 1243.51 409.52 1300.30 321.28 1360.17 223.19
  Q 1367.32 211.47 1390.29 175.06
  C 1418.34 130.59 1445.57 88.14 1475.51 47.48
  Q 1476.31 46.40 1478.76 43.83
  Q 1479.22 43.34 1479.18 44.01
  Q 1479.03 46.11 1478.49 48.00
  C 1436.00 196.33 1392.91 344.48 1349.85 492.65
  Q 1258.49 807.07 1166.08 1121.19
  Q 1156.03 1155.35 1145.83 1189.46
  C 1144.74 1193.11 1144.19 1196.54 1141.41 1199.41
  Q 1138.14 1202.78 1134.79 1206.05
  C 1133.60 1207.21 1131.92 1207.62 1130.74 1209.12
  Q 1130.43 1209.51 1129.97 1209.70
  C 1126.87 1210.97 1124.48 1212.99 1121.58 1214.37
  Q 1119.88 1215.17 1118.23 1216.05
  C 1116.32 1217.06 1114.05 1217.39 1112.04 1218.56
  C 1110.59 1219.40 1109.34 1218.98 1108.00 1219.88
  Q 1106.13 1221.12 1102.52 1222.06
  Q 1099.87 1222.76 1092.55 1226.53
  Q 1092.23 1226.70 1089.35 1227.69
  C 1087.77 1228.24 1086.72 1229.52 1085.35 1230.17
  Q 1073.84 1235.64 1063.03 1242.38
  C 1061.37 1243.41 1058.78 1244.28 1056.85 1245.63
  Q 1054.91 1246.97 1054.53 1247.20
  C 1020.52 1267.79 984.66 1291.78 952.87 1316.73
  C 952.02 1317.39 950.52 1319.07 949.07 1319.84
  C 947.04 1320.92 944.83 1324.35 943.00 1324.72
  A 1.77 1.66 14.8 0 0 942.15 1325.18
  Q 938.85 1328.51 935.49 1331.76
  C 934.46 1332.76 933.08 1332.94 932.11 1333.94
  Q 929.96 1336.14 927.56 1338.06
  C 915.77 1347.48 903.96 1356.74 890.70 1364.05
  C 889.68 1364.61 888.23 1364.63 887.22 1365.67
  A 0.65 0.65 0.0 0 1 886.31 1365.70
  Q 885.23 1364.68 883.73 1364.61
  Q 883.11 1364.57 882.83 1364.02
  L 877.38 1352.89
  A 1.12 1.03 -61.0 0 1 877.26 1352.39
  C 877.27 1351.03 875.87 1349.27 875.43 1347.93
  C 873.67 1342.52 871.27 1336.90 869.06 1331.63
  C 867.72 1328.42 866.99 1325.89 864.86 1322.15
  C 864.39 1321.31 864.36 1320.72 864.29 1319.78
  A 1.05 1.04 13.5 0 0 863.78 1318.96
  Q 863.27 1318.64 863.28 1318.05
  Q 863.30 1317.55 863.05 1317.10
  Q 861.67 1314.61 860.29 1312.14
  C 859.60 1310.89 859.97 1309.81 859.43 1308.76
  Q 853.56 1297.35 847.96 1285.81
  Q 847.27 1284.39 845.21 1281.40
  C 843.85 1279.44 842.96 1277.03 841.89 1275.25
  C 826.57 1249.70 810.34 1224.38 792.12 1200.78
  C 790.90 1199.19 789.05 1197.32 787.74 1195.46
  C 785.89 1192.84 784.18 1191.22 782.07 1189.15
  C 781.16 1188.26 781.19 1187.23 780.39 1186.42
  C 777.02 1183.02 773.12 1178.21 769.07 1175.78
  C 767.75 1174.99 766.95 1173.90 765.53 1173.27
  Q 762.17 1171.77 758.91 1170.02
  Q 758.47 1169.78 757.98 1169.81
  Q 756.29 1169.88 754.78 1169.18
  C 752.36 1168.06 751.47 1169.41 749.43 1169.71
  C 746.20 1170.17 740.75 1172.76 738.25 1174.89
  C 737.21 1175.77 736.02 1176.07 735.11 1176.95
  Q 727.82 1184.02 725.30 1186.78
  C 724.87 1187.24 724.84 1188.20 724.24 1188.81
  Q 722.73 1190.37 721.18 1191.89
  C 719.03 1194.02 717.94 1196.90 715.17 1198.93
  C 714.68 1199.30 714.11 1200.94 713.55 1201.63
  Q 704.47 1212.77 694.60 1227.53
  C 680.02 1249.34 666.05 1270.43 654.73 1292.70
  C 644.60 1312.62 637.86 1330.46 629.78 1349.57
  Q 629.75 1349.63 628.78 1352.69
  Q 628.15 1354.64 626.57 1357.05
  Q 625.65 1358.44 623.69 1363.44
  Q 623.20 1364.68 621.33 1364.73
  Q 620.82 1364.75 620.59 1365.20
  Z"
/>
<path fill="#f7fefe" d="
  M 753.18 336.36
  C 750.26 337.83 747.59 341.13 745.29 343.49
  C 744.34 344.46 743.29 344.40 742.36 345.35
  Q 738.57 349.25 734.68 353.04
  C 732.58 355.09 729.50 356.75 727.33 359.43
  A 1.14 1.13 18.7 0 1 726.47 359.85
  Q 725.37 359.88 724.73 360.71
  A 1.22 1.22 0.0 0 1 722.55 360.17
  C 722.12 357.61 723.87 354.67 724.39 351.71
  C 727.18 335.87 730.15 320.20 732.47 304.11
  C 734.59 289.43 736.95 274.93 738.92 260.08
  C 742.69 231.66 746.52 208.69 752.12 185.56
  Q 752.40 184.41 753.44 185.34
  Q 753.76 185.64 753.87 186.06
  C 760.29 210.56 763.95 235.88 767.33 260.95
  C 771.30 290.42 775.97 319.80 781.19 349.07
  C 781.45 350.51 782.33 352.73 782.56 354.63
  C 782.81 356.80 784.00 358.11 783.49 360.50
  A 0.73 0.73 0.0 0 1 782.50 361.03
  Q 780.13 360.08 778.32 358.84
  C 776.97 357.92 775.98 355.83 773.80 355.15
  Q 773.32 355.00 772.96 354.66
  C 770.67 352.45 764.42 345.07 761.86 344.32
  A 1.74 1.69 74.6 0 1 761.11 343.88
  L 753.71 336.45
  Q 753.48 336.21 753.18 336.36
  Z"
/>
<path fill="#f7fefe" d="
  M 689.19 422.24
  C 691.64 426.80 697.50 431.50 701.25 435.26
  C 702.33 436.35 702.66 437.44 703.44 438.76
  C 704.38 440.35 704.22 441.92 702.01 442.19
  Q 698.46 442.62 695.91 440.97
  Q 695.47 440.69 694.96 440.72
  Q 691.90 440.87 690.00 440.49
  Q 672.15 436.88 654.28 433.35
  C 630.42 428.63 606.52 423.73 582.73 418.61
  Q 570.55 415.99 558.61 412.47
  C 556.67 411.90 554.47 410.44 552.06 410.14
  A 1.52 1.52 0.0 0 1 551.03 407.71
  C 551.82 406.65 552.77 406.02 554.16 405.70
  C 558.05 404.80 561.97 403.39 565.66 402.68
  Q 599.76 396.12 634.15 391.32
  C 636.79 390.95 639.70 390.18 642.50 389.74
  Q 678.60 384.00 699.24 379.50
  Q 703.41 378.60 705.00 378.47
  Q 705.49 378.43 705.90 378.14
  Q 706.31 377.85 706.77 377.63
  Q 707.32 377.38 707.73 377.55
  Q 707.99 377.66 708.13 377.88
  Q 708.40 378.31 708.02 378.64
  Q 705.19 381.17 700.52 387.00
  Q 698.95 388.96 692.77 394.99
  C 692.21 395.53 692.17 396.18 691.56 396.84
  Q 685.66 403.16 679.98 408.81
  A 2.93 2.93 0.0 0 0 679.98 412.97
  L 688.84 421.77
  A 2.04 2.00 8.9 0 1 689.19 422.24
  Z"
/>
<path fill="#f7fefe" d="
  M 826.00 408.79
  C 822.13 404.98 816.84 400.50 813.73 395.84
  C 812.35 393.78 809.95 391.75 808.21 389.92
  C 805.01 386.57 802.02 382.15 798.10 378.73
  A 0.70 0.70 0.0 0 1 798.69 377.51
  Q 799.34 377.63 799.84 377.96
  Q 800.22 378.21 800.67 378.30
  Q 844.33 387.09 888.36 393.75
  C 906.28 396.46 922.64 399.33 939.72 402.64
  C 943.80 403.44 952.41 404.89 955.39 407.87
  A 1.02 1.01 56.6 0 1 955.05 409.53
  C 951.09 411.12 947.31 412.69 943.22 413.74
  C 917.28 420.39 891.00 425.11 864.85 430.76
  C 851.79 433.59 841.57 435.50 825.53 438.67
  Q 815.93 440.57 806.25 442.02
  Q 804.88 442.22 803.62 442.11
  A 1.73 1.72 -66.6 0 1 802.49 439.24
  C 803.46 438.16 803.56 436.75 804.62 435.65
  Q 810.27 429.78 816.00 424.00
  Q 816.35 423.64 816.59 422.67
  A 1.52 1.50 -15.9 0 1 816.99 421.96
  L 826.01 412.97
  A 2.95 2.94 -45.2 0 0 826.00 408.79
  Z"
/>
<path fill="#f7fefe" d="
  M 752.28 475.70
  C 755.50 476.64 763.33 470.22 765.48 468.01
  C 768.74 464.65 772.42 462.28 775.52 458.86
  C 776.72 457.53 777.94 457.02 779.45 456.23
  Q 780.02 455.94 780.01 456.58
  C 779.99 458.89 779.44 461.66 779.25 463.41
  C 773.10 521.08 765.76 580.59 757.77 632.76
  Q 757.36 635.49 755.01 644.35
  Q 754.89 644.80 754.43 644.79
  L 751.81 644.75
  A 1.01 1.00 -6.8 0 1 750.85 644.00
  Q 749.36 638.32 748.53 632.96
  Q 739.49 574.38 734.47 530.50
  Q 729.42 486.40 727.19 468.76
  Q 727.01 467.37 727.00 463.74
  C 726.99 461.42 725.94 459.38 726.01 456.87
  Q 726.02 456.37 726.51 456.48
  Q 728.67 456.96 729.46 457.79
  C 733.67 462.22 737.72 465.18 741.86 468.99
  C 745.18 472.05 748.54 474.61 752.28 475.70
  Z"
/>
</svg>
